# xmcd
#
# Track frame offsets:
#	150
#	11764
#	26138
#	39500
#	50971
#	63717
#	80448
#	90310
#	101375
#	114342
#	126265
#	138343
#
# Disc length: 1979 seconds
#
# Revision: 0
# Processed by: cddbd v1.5.2PL0 Copyright (c) Steve Scherf et al.
# Submitted via: EZCDAudioConverter 2.1.7.1
#
DISCID=9f07b90c
DTITLE=Lisa Miller - Within Myself
DYEAR=1900
DGENRE=
TTITLE0=To Sir With Love
TTITLE1=Little Bird
TTITLE2=Mechanical Man
TTITLE3=Be Like A Little Child
TTITLE4=I'll Hit A Lucky Streak
TTITLE5=Utopia
TTITLE6=White Rabbit
TTITLE7=Fool On The Hill
TTITLE8=Beggar Boy
TTITLE9=Within Myself
TTITLE10=Love Is [Mono]
TTITLE11=The Loneliest Christmas Tree [Mono]
EXTD=
EXTT0=
EXTT1=
EXTT2=
EXTT3=
EXTT4=
EXTT5=
EXTT6=
EXTT7=
EXTT8=
EXTT9=
EXTT10=
EXTT11=
PLAYORDER=
